<svg xmlns="http://www.w3.org/2000/svg" width="1292" height="1452" viewBox="0 0 1292 1452" font-family="Segoe UI,Helvetica,Arial"><rect x="0" y="0" width="1292" height="1452" fill="#ffffff"/><rect x="0" y="0" width="1292" height="92" fill="#0f172a"/><text x="28" y="40" font-family="Segoe UI,Helvetica,Arial" font-size="22" font-weight="800" fill="#ffffff">Assessment Infra — 현재 인스턴스 상태 스냅샷</text><text x="28" y="66" font-family="Segoe UI,Helvetica,Arial" font-size="13" fill="#94a3b8">2026-06-11 · OpenStack 라이브 · 총 40대 (ACTIVE 40) — 인프라 3 · Linux 29 · Windows 8</text><rect x="28" y="106" width="1236" height="98" rx="10" fill="#fffbeb" stroke="#f59e0b" stroke-width="1.5"/><rect x="28" y="106" width="6" height="98" rx="3" fill="#f59e0b"/><text x="44" y="128" font-family="Segoe UI,Helvetica,Arial" font-size="14" font-weight="700" fill="#111827">인프라 코어 (bastion · engine · ai) <tspan fill="#f59e0b">×3</tspan></text><rect x="40" y="140" width="168" height="50" rx="6" fill="#ffffff" stroke="#d1d5db" stroke-width="1"/><circle cx="50" cy="152" r="4" fill="#22c55e"/><text x="60" y="156" font-family="Segoe UI,Helvetica,Arial" font-size="11.5" font-weight="600" fill="#111827">ai-vm</text><circle cx="51" cy="171" r="3" fill="#2563eb"/><text x="58" y="174" font-family="Consolas,monospace" font-size="9.5" fill="#374151">.60</text><rect x="218" y="140" width="168" height="50" rx="6" fill="#ffffff" stroke="#d1d5db" stroke-width="1"/><circle cx="228" cy="152" r="4" fill="#22c55e"/><text x="238" y="156" font-family="Segoe UI,Helvetica,Arial" font-size="11.5" font-weight="600" fill="#111827">bastion-new</text><circle cx="229" cy="171" r="3" fill="#2563eb"/><text x="236" y="174" font-family="Consolas,monospace" font-size="9.5" fill="#374151">.98</text><circle cx="260.8" cy="171" r="3" fill="#dc2626"/><text x="267.8" y="174" font-family="Consolas,monospace" font-size="9.5" fill="#374151">192.168.3.205</text><rect x="396" y="140" width="168" height="50" rx="6" fill="#ffffff" stroke="#d1d5db" stroke-width="1"/><circle cx="406" cy="152" r="4" fill="#22c55e"/><text x="416" y="156" font-family="Segoe UI,Helvetica,Arial" font-size="11.5" font-weight="600" fill="#111827">engine-vm</text><circle cx="407" cy="171" r="3" fill="#2563eb"/><text x="414" y="174" font-family="Consolas,monospace" font-size="9.5" fill="#374151">.25</text><circle cx="438.8" cy="171" r="3" fill="#dc2626"/><text x="445.8" y="174" font-family="Consolas,monospace" font-size="9.5" fill="#374151">192.168.3.149</text><rect x="28" y="220" width="1236" height="98" rx="10" fill="#f0fdf4" stroke="#16a34a" stroke-width="1.5"/><rect x="28" y="220" width="6" height="98" rx="3" fill="#16a34a"/><text x="44" y="242" font-family="Segoe UI,Helvetica,Arial" font-size="14" font-weight="700" fill="#111827">Debian 13 <tspan fill="#16a34a">×4</tspan></text><rect x="40" y="254" width="168" height="50" rx="6" fill="#ffffff" stroke="#d1d5db" stroke-width="1"/><circle cx="50" cy="266" r="4" fill="#22c55e"/><text x="60" y="270" font-family="Segoe UI,Helvetica,Arial" font-size="11.5" font-weight="600" fill="#111827">debian13-1</text><circle cx="51" cy="285" r="3" fill="#2563eb"/><text x="58" y="288" font-family="Consolas,monospace" font-size="9.5" fill="#374151">.124</text><circle cx="88.4" cy="285" r="3" fill="#16a34a"/><text x="95.4" y="288" font-family="Consolas,monospace" font-size="9.5" fill="#374151">.64</text><circle cx="120.2" cy="285" r="3" fill="#0891b2"/><text x="127.2" y="288" font-family="Consolas,monospace" font-size="9.5" fill="#374151">.12</text><rect x="218" y="254" width="168" height="50" rx="6" fill="#ffffff" stroke="#d1d5db" stroke-width="1"/><circle cx="228" cy="266" r="4" fill="#22c55e"/><text x="238" y="270" font-family="Segoe UI,Helvetica,Arial" font-size="11.5" font-weight="600" fill="#111827">debian13-2</text><circle cx="229" cy="285" r="3" fill="#2563eb"/><text x="236" y="288" font-family="Consolas,monospace" font-size="9.5" fill="#374151">.112</text><circle cx="266.4" cy="285" r="3" fill="#16a34a"/><text x="273.4" y="288" font-family="Consolas,monospace" font-size="9.5" fill="#374151">.71</text><circle cx="298.2" cy="285" r="3" fill="#0891b2"/><text x="305.2" y="288" font-family="Consolas,monospace" font-size="9.5" fill="#374151">.110</text><rect x="396" y="254" width="168" height="50" rx="6" fill="#ffffff" stroke="#d1d5db" stroke-width="1"/><circle cx="406" cy="266" r="4" fill="#22c55e"/><text x="416" y="270" font-family="Segoe UI,Helvetica,Arial" font-size="11.5" font-weight="600" fill="#111827">debian13-3</text><circle cx="407" cy="285" r="3" fill="#2563eb"/><text x="414" y="288" font-family="Consolas,monospace" font-size="9.5" fill="#374151">.106</text><circle cx="444.4" cy="285" r="3" fill="#16a34a"/><text x="451.4" y="288" font-family="Consolas,monospace" font-size="9.5" fill="#374151">.13</text><circle cx="476.2" cy="285" r="3" fill="#0891b2"/><text x="483.2" y="288" font-family="Consolas,monospace" font-size="9.5" fill="#374151">.29</text><rect x="574" y="254" width="168" height="50" rx="6" fill="#ffffff" stroke="#d1d5db" stroke-width="1"/><circle cx="584" cy="266" r="4" fill="#22c55e"/><text x="594" y="270" font-family="Segoe UI,Helvetica,Arial" font-size="11.5" font-weight="600" fill="#111827">debian13-4</text><circle cx="585" cy="285" r="3" fill="#2563eb"/><text x="592" y="288" font-family="Consolas,monospace" font-size="9.5" fill="#374151">.105</text><circle cx="622.4" cy="285" r="3" fill="#16a34a"/><text x="629.4" y="288" font-family="Consolas,monospace" font-size="9.5" fill="#374151">.51</text><circle cx="654.1999999999999" cy="285" r="3" fill="#0891b2"/><text x="661.1999999999999" y="288" font-family="Consolas,monospace" font-size="9.5" fill="#374151">.79</text><rect x="28" y="334" width="1236" height="98" rx="10" fill="#f0fdf4" stroke="#16a34a" stroke-width="1.5"/><rect x="28" y="334" width="6" height="98" rx="3" fill="#16a34a"/><text x="44" y="356" font-family="Segoe UI,Helvetica,Arial" font-size="14" font-weight="700" fill="#111827">Debian 12 <tspan fill="#16a34a">×4</tspan></text><rect x="40" y="368" width="168" height="50" rx="6" fill="#ffffff" stroke="#d1d5db" stroke-width="1"/><circle cx="50" cy="380" r="4" fill="#22c55e"/><text x="60" y="384" font-family="Segoe UI,Helvetica,Arial" font-size="11.5" font-weight="600" fill="#111827">debian12-1</text><circle cx="51" cy="399" r="3" fill="#2563eb"/><text x="58" y="402" font-family="Consolas,monospace" font-size="9.5" fill="#374151">.97</text><circle cx="82.8" cy="399" r="3" fill="#16a34a"/><text x="89.8" y="402" font-family="Consolas,monospace" font-size="9.5" fill="#374151">.41</text><circle cx="114.6" cy="399" r="3" fill="#0891b2"/><text x="121.6" y="402" font-family="Consolas,monospace" font-size="9.5" fill="#374151">.71</text><rect x="218" y="368" width="168" height="50" rx="6" fill="#ffffff" stroke="#d1d5db" stroke-width="1"/><circle cx="228" cy="380" r="4" fill="#22c55e"/><text x="238" y="384" font-family="Segoe UI,Helvetica,Arial" font-size="11.5" font-weight="600" fill="#111827">debian12-2</text><circle cx="229" cy="399" r="3" fill="#2563eb"/><text x="236" y="402" font-family="Consolas,monospace" font-size="9.5" fill="#374151">.100</text><circle cx="266.4" cy="399" r="3" fill="#16a34a"/><text x="273.4" y="402" font-family="Consolas,monospace" font-size="9.5" fill="#374151">.72</text><circle cx="298.2" cy="399" r="3" fill="#0891b2"/><text x="305.2" y="402" font-family="Consolas,monospace" font-size="9.5" fill="#374151">.90</text><rect x="396" y="368" width="168" height="50" rx="6" fill="#ffffff" stroke="#d1d5db" stroke-width="1"/><circle cx="406" cy="380" r="4" fill="#22c55e"/><text x="416" y="384" font-family="Segoe UI,Helvetica,Arial" font-size="11.5" font-weight="600" fill="#111827">debian12-3</text><circle cx="407" cy="399" r="3" fill="#2563eb"/><text x="414" y="402" font-family="Consolas,monospace" font-size="9.5" fill="#374151">.78</text><circle cx="438.8" cy="399" r="3" fill="#16a34a"/><text x="445.8" y="402" font-family="Consolas,monospace" font-size="9.5" fill="#374151">.16</text><circle cx="470.6" cy="399" r="3" fill="#0891b2"/><text x="477.6" y="402" font-family="Consolas,monospace" font-size="9.5" fill="#374151">.88</text><rect x="574" y="368" width="168" height="50" rx="6" fill="#ffffff" stroke="#d1d5db" stroke-width="1"/><circle cx="584" cy="380" r="4" fill="#22c55e"/><text x="594" y="384" font-family="Segoe UI,Helvetica,Arial" font-size="11.5" font-weight="600" fill="#111827">debian12-4</text><circle cx="585" cy="399" r="3" fill="#2563eb"/><text x="592" y="402" font-family="Consolas,monospace" font-size="9.5" fill="#374151">.109</text><circle cx="622.4" cy="399" r="3" fill="#16a34a"/><text x="629.4" y="402" font-family="Consolas,monospace" font-size="9.5" fill="#374151">.29</text><circle cx="654.1999999999999" cy="399" r="3" fill="#0891b2"/><text x="661.1999999999999" y="402" font-family="Consolas,monospace" font-size="9.5" fill="#374151">.44</text><rect x="28" y="448" width="1236" height="98" rx="10" fill="#fff7ed" stroke="#ea580c" stroke-width="1.5"/><rect x="28" y="448" width="6" height="98" rx="3" fill="#ea580c"/><text x="44" y="470" font-family="Segoe UI,Helvetica,Arial" font-size="14" font-weight="700" fill="#111827">Ubuntu 24.04 <tspan fill="#ea580c">×4</tspan></text><rect x="40" y="482" width="168" height="50" rx="6" fill="#ffffff" stroke="#d1d5db" stroke-width="1"/><circle cx="50" cy="494" r="4" fill="#22c55e"/><text x="60" y="498" font-family="Segoe UI,Helvetica,Arial" font-size="11.5" font-weight="600" fill="#111827">ubuntu2404-1</text><circle cx="51" cy="513" r="3" fill="#2563eb"/><text x="58" y="516" font-family="Consolas,monospace" font-size="9.5" fill="#374151">.72</text><circle cx="82.8" cy="513" r="3" fill="#16a34a"/><text x="89.8" y="516" font-family="Consolas,monospace" font-size="9.5" fill="#374151">.35</text><circle cx="114.6" cy="513" r="3" fill="#0891b2"/><text x="121.6" y="516" font-family="Consolas,monospace" font-size="9.5" fill="#374151">.74</text><rect x="218" y="482" width="168" height="50" rx="6" fill="#ffffff" stroke="#d1d5db" stroke-width="1"/><circle cx="228" cy="494" r="4" fill="#22c55e"/><text x="238" y="498" font-family="Segoe UI,Helvetica,Arial" font-size="11.5" font-weight="600" fill="#111827">ubuntu2404-2</text><circle cx="229" cy="513" r="3" fill="#2563eb"/><text x="236" y="516" font-family="Consolas,monospace" font-size="9.5" fill="#374151">.119</text><circle cx="266.4" cy="513" r="3" fill="#16a34a"/><text x="273.4" y="516" font-family="Consolas,monospace" font-size="9.5" fill="#374151">.79</text><circle cx="298.2" cy="513" r="3" fill="#0891b2"/><text x="305.2" y="516" font-family="Consolas,monospace" font-size="9.5" fill="#374151">.125</text><rect x="396" y="482" width="168" height="50" rx="6" fill="#ffffff" stroke="#d1d5db" stroke-width="1"/><circle cx="406" cy="494" r="4" fill="#22c55e"/><text x="416" y="498" font-family="Segoe UI,Helvetica,Arial" font-size="11.5" font-weight="600" fill="#111827">ubuntu2404-3</text><circle cx="407" cy="513" r="3" fill="#2563eb"/><text x="414" y="516" font-family="Consolas,monospace" font-size="9.5" fill="#374151">.116</text><circle cx="444.4" cy="513" r="3" fill="#16a34a"/><text x="451.4" y="516" font-family="Consolas,monospace" font-size="9.5" fill="#374151">.53</text><circle cx="476.2" cy="513" r="3" fill="#0891b2"/><text x="483.2" y="516" font-family="Consolas,monospace" font-size="9.5" fill="#374151">.103</text><rect x="574" y="482" width="168" height="50" rx="6" fill="#ffffff" stroke="#d1d5db" stroke-width="1"/><circle cx="584" cy="494" r="4" fill="#22c55e"/><text x="594" y="498" font-family="Segoe UI,Helvetica,Arial" font-size="11.5" font-weight="600" fill="#111827">ubuntu2404-4</text><circle cx="585" cy="513" r="3" fill="#2563eb"/><text x="592" y="516" font-family="Consolas,monospace" font-size="9.5" fill="#374151">.118</text><circle cx="622.4" cy="513" r="3" fill="#16a34a"/><text x="629.4" y="516" font-family="Consolas,monospace" font-size="9.5" fill="#374151">.49</text><circle cx="654.1999999999999" cy="513" r="3" fill="#0891b2"/><text x="661.1999999999999" y="516" font-family="Consolas,monospace" font-size="9.5" fill="#374151">.111</text><rect x="28" y="562" width="1236" height="98" rx="10" fill="#fff7ed" stroke="#ea580c" stroke-width="1.5"/><rect x="28" y="562" width="6" height="98" rx="3" fill="#ea580c"/><text x="44" y="584" font-family="Segoe UI,Helvetica,Arial" font-size="14" font-weight="700" fill="#111827">Ubuntu 22.04 <tspan fill="#ea580c">×4</tspan></text><rect x="40" y="596" width="168" height="50" rx="6" fill="#ffffff" stroke="#d1d5db" stroke-width="1"/><circle cx="50" cy="608" r="4" fill="#22c55e"/><text x="60" y="612" font-family="Segoe UI,Helvetica,Arial" font-size="11.5" font-weight="600" fill="#111827">ubuntu2204-1</text><circle cx="51" cy="627" r="3" fill="#2563eb"/><text x="58" y="630" font-family="Consolas,monospace" font-size="9.5" fill="#374151">.104</text><circle cx="88.4" cy="627" r="3" fill="#16a34a"/><text x="95.4" y="630" font-family="Consolas,monospace" font-size="9.5" fill="#374151">.88</text><circle cx="120.2" cy="627" r="3" fill="#0891b2"/><text x="127.2" y="630" font-family="Consolas,monospace" font-size="9.5" fill="#374151">.65</text><rect x="218" y="596" width="168" height="50" rx="6" fill="#ffffff" stroke="#d1d5db" stroke-width="1"/><circle cx="228" cy="608" r="4" fill="#22c55e"/><text x="238" y="612" font-family="Segoe UI,Helvetica,Arial" font-size="11.5" font-weight="600" fill="#111827">ubuntu2204-2</text><circle cx="229" cy="627" r="3" fill="#2563eb"/><text x="236" y="630" font-family="Consolas,monospace" font-size="9.5" fill="#374151">.102</text><circle cx="266.4" cy="627" r="3" fill="#16a34a"/><text x="273.4" y="630" font-family="Consolas,monospace" font-size="9.5" fill="#374151">.20</text><circle cx="298.2" cy="627" r="3" fill="#0891b2"/><text x="305.2" y="630" font-family="Consolas,monospace" font-size="9.5" fill="#374151">.52</text><rect x="396" y="596" width="168" height="50" rx="6" fill="#ffffff" stroke="#d1d5db" stroke-width="1"/><circle cx="406" cy="608" r="4" fill="#22c55e"/><text x="416" y="612" font-family="Segoe UI,Helvetica,Arial" font-size="11.5" font-weight="600" fill="#111827">ubuntu2204-3</text><circle cx="407" cy="627" r="3" fill="#2563eb"/><text x="414" y="630" font-family="Consolas,monospace" font-size="9.5" fill="#374151">.70</text><circle cx="438.8" cy="627" r="3" fill="#16a34a"/><text x="445.8" y="630" font-family="Consolas,monospace" font-size="9.5" fill="#374151">.46</text><circle cx="470.6" cy="627" r="3" fill="#0891b2"/><text x="477.6" y="630" font-family="Consolas,monospace" font-size="9.5" fill="#374151">.21</text><rect x="574" y="596" width="168" height="50" rx="6" fill="#ffffff" stroke="#d1d5db" stroke-width="1"/><circle cx="584" cy="608" r="4" fill="#22c55e"/><text x="594" y="612" font-family="Segoe UI,Helvetica,Arial" font-size="11.5" font-weight="600" fill="#111827">ubuntu2204-4</text><circle cx="585" cy="627" r="3" fill="#2563eb"/><text x="592" y="630" font-family="Consolas,monospace" font-size="9.5" fill="#374151">.77</text><circle cx="616.8" cy="627" r="3" fill="#16a34a"/><text x="623.8" y="630" font-family="Consolas,monospace" font-size="9.5" fill="#374151">.109</text><circle cx="654.1999999999999" cy="627" r="3" fill="#0891b2"/><text x="661.1999999999999" y="630" font-family="Consolas,monospace" font-size="9.5" fill="#374151">.115</text><rect x="28" y="676" width="1236" height="98" rx="10" fill="#f0fdfa" stroke="#0d9488" stroke-width="1.5"/><rect x="28" y="676" width="6" height="98" rx="3" fill="#0d9488"/><text x="44" y="698" font-family="Segoe UI,Helvetica,Arial" font-size="14" font-weight="700" fill="#111827">Rocky 9 <tspan fill="#0d9488">×4</tspan></text><rect x="40" y="710" width="168" height="50" rx="6" fill="#ffffff" stroke="#d1d5db" stroke-width="1"/><circle cx="50" cy="722" r="4" fill="#22c55e"/><text x="60" y="726" font-family="Segoe UI,Helvetica,Arial" font-size="11.5" font-weight="600" fill="#111827">rocky9-1</text><circle cx="51" cy="741" r="3" fill="#2563eb"/><text x="58" y="744" font-family="Consolas,monospace" font-size="9.5" fill="#374151">.73</text><circle cx="82.8" cy="741" r="3" fill="#16a34a"/><text x="89.8" y="744" font-family="Consolas,monospace" font-size="9.5" fill="#374151">.123</text><circle cx="120.19999999999999" cy="741" r="3" fill="#0891b2"/><text x="127.19999999999999" y="744" font-family="Consolas,monospace" font-size="9.5" fill="#374151">.5</text><rect x="218" y="710" width="168" height="50" rx="6" fill="#ffffff" stroke="#d1d5db" stroke-width="1"/><circle cx="228" cy="722" r="4" fill="#22c55e"/><text x="238" y="726" font-family="Segoe UI,Helvetica,Arial" font-size="11.5" font-weight="600" fill="#111827">rocky9-2</text><circle cx="229" cy="741" r="3" fill="#2563eb"/><text x="236" y="744" font-family="Consolas,monospace" font-size="9.5" fill="#374151">.108</text><circle cx="266.4" cy="741" r="3" fill="#16a34a"/><text x="273.4" y="744" font-family="Consolas,monospace" font-size="9.5" fill="#374151">.78</text><circle cx="298.2" cy="741" r="3" fill="#0891b2"/><text x="305.2" y="744" font-family="Consolas,monospace" font-size="9.5" fill="#374151">.108</text><rect x="396" y="710" width="168" height="50" rx="6" fill="#ffffff" stroke="#d1d5db" stroke-width="1"/><circle cx="406" cy="722" r="4" fill="#22c55e"/><text x="416" y="726" font-family="Segoe UI,Helvetica,Arial" font-size="11.5" font-weight="600" fill="#111827">rocky9-3</text><circle cx="407" cy="741" r="3" fill="#2563eb"/><text x="414" y="744" font-family="Consolas,monospace" font-size="9.5" fill="#374151">.120</text><circle cx="444.4" cy="741" r="3" fill="#16a34a"/><text x="451.4" y="744" font-family="Consolas,monospace" font-size="9.5" fill="#374151">.15</text><circle cx="476.2" cy="741" r="3" fill="#0891b2"/><text x="483.2" y="744" font-family="Consolas,monospace" font-size="9.5" fill="#374151">.122</text><rect x="574" y="710" width="168" height="50" rx="6" fill="#ffffff" stroke="#d1d5db" stroke-width="1"/><circle cx="584" cy="722" r="4" fill="#22c55e"/><text x="594" y="726" font-family="Segoe UI,Helvetica,Arial" font-size="11.5" font-weight="600" fill="#111827">rocky9-4</text><circle cx="585" cy="741" r="3" fill="#2563eb"/><text x="592" y="744" font-family="Consolas,monospace" font-size="9.5" fill="#374151">.88</text><circle cx="616.8" cy="741" r="3" fill="#16a34a"/><text x="623.8" y="744" font-family="Consolas,monospace" font-size="9.5" fill="#374151">.57</text><circle cx="648.5999999999999" cy="741" r="3" fill="#0891b2"/><text x="655.5999999999999" y="744" font-family="Consolas,monospace" font-size="9.5" fill="#374151">.78</text><rect x="28" y="790" width="1236" height="98" rx="10" fill="#f0fdfa" stroke="#0d9488" stroke-width="1.5"/><rect x="28" y="790" width="6" height="98" rx="3" fill="#0d9488"/><text x="44" y="812" font-family="Segoe UI,Helvetica,Arial" font-size="14" font-weight="700" fill="#111827">AlmaLinux 9 <tspan fill="#0d9488">×4</tspan></text><rect x="40" y="824" width="168" height="50" rx="6" fill="#ffffff" stroke="#d1d5db" stroke-width="1"/><circle cx="50" cy="836" r="4" fill="#22c55e"/><text x="60" y="840" font-family="Segoe UI,Helvetica,Arial" font-size="11.5" font-weight="600" fill="#111827">alma9-1</text><circle cx="51" cy="855" r="3" fill="#2563eb"/><text x="58" y="858" font-family="Consolas,monospace" font-size="9.5" fill="#374151">.71</text><circle cx="82.8" cy="855" r="3" fill="#16a34a"/><text x="89.8" y="858" font-family="Consolas,monospace" font-size="9.5" fill="#374151">.44</text><circle cx="114.6" cy="855" r="3" fill="#0891b2"/><text x="121.6" y="858" font-family="Consolas,monospace" font-size="9.5" fill="#374151">.40</text><rect x="218" y="824" width="168" height="50" rx="6" fill="#ffffff" stroke="#d1d5db" stroke-width="1"/><circle cx="228" cy="836" r="4" fill="#22c55e"/><text x="238" y="840" font-family="Segoe UI,Helvetica,Arial" font-size="11.5" font-weight="600" fill="#111827">alma9-2</text><circle cx="229" cy="855" r="3" fill="#2563eb"/><text x="236" y="858" font-family="Consolas,monospace" font-size="9.5" fill="#374151">.126</text><circle cx="266.4" cy="855" r="3" fill="#16a34a"/><text x="273.4" y="858" font-family="Consolas,monospace" font-size="9.5" fill="#374151">.118</text><circle cx="303.79999999999995" cy="855" r="3" fill="#0891b2"/><text x="310.79999999999995" y="858" font-family="Consolas,monospace" font-size="9.5" fill="#374151">.118</text><rect x="396" y="824" width="168" height="50" rx="6" fill="#ffffff" stroke="#d1d5db" stroke-width="1"/><circle cx="406" cy="836" r="4" fill="#22c55e"/><text x="416" y="840" font-family="Segoe UI,Helvetica,Arial" font-size="11.5" font-weight="600" fill="#111827">alma9-3</text><circle cx="407" cy="855" r="3" fill="#2563eb"/><text x="414" y="858" font-family="Consolas,monospace" font-size="9.5" fill="#374151">.86</text><circle cx="438.8" cy="855" r="3" fill="#16a34a"/><text x="445.8" y="858" font-family="Consolas,monospace" font-size="9.5" fill="#374151">.25</text><circle cx="470.6" cy="855" r="3" fill="#0891b2"/><text x="477.6" y="858" font-family="Consolas,monospace" font-size="9.5" fill="#374151">.49</text><rect x="574" y="824" width="168" height="50" rx="6" fill="#ffffff" stroke="#d1d5db" stroke-width="1"/><circle cx="584" cy="836" r="4" fill="#22c55e"/><text x="594" y="840" font-family="Segoe UI,Helvetica,Arial" font-size="11.5" font-weight="600" fill="#111827">alma9-4</text><circle cx="585" cy="855" r="3" fill="#2563eb"/><text x="592" y="858" font-family="Consolas,monospace" font-size="9.5" fill="#374151">.122</text><circle cx="622.4" cy="855" r="3" fill="#16a34a"/><text x="629.4" y="858" font-family="Consolas,monospace" font-size="9.5" fill="#374151">.47</text><circle cx="654.1999999999999" cy="855" r="3" fill="#0891b2"/><text x="661.1999999999999" y="858" font-family="Consolas,monospace" font-size="9.5" fill="#374151">.37</text><rect x="28" y="904" width="1236" height="98" rx="10" fill="#f0fdfa" stroke="#0d9488" stroke-width="1.5"/><rect x="28" y="904" width="6" height="98" rx="3" fill="#0d9488"/><text x="44" y="926" font-family="Segoe UI,Helvetica,Arial" font-size="14" font-weight="700" fill="#111827">CentOS Stream 9 <tspan fill="#0d9488">×4</tspan></text><rect x="40" y="938" width="168" height="50" rx="6" fill="#ffffff" stroke="#d1d5db" stroke-width="1"/><circle cx="50" cy="950" r="4" fill="#22c55e"/><text x="60" y="954" font-family="Segoe UI,Helvetica,Arial" font-size="11.5" font-weight="600" fill="#111827">centos9-1</text><circle cx="51" cy="969" r="3" fill="#2563eb"/><text x="58" y="972" font-family="Consolas,monospace" font-size="9.5" fill="#374151">.74</text><circle cx="82.8" cy="969" r="3" fill="#16a34a"/><text x="89.8" y="972" font-family="Consolas,monospace" font-size="9.5" fill="#374151">.32</text><circle cx="114.6" cy="969" r="3" fill="#0891b2"/><text x="121.6" y="972" font-family="Consolas,monospace" font-size="9.5" fill="#374151">.126</text><rect x="218" y="938" width="168" height="50" rx="6" fill="#ffffff" stroke="#d1d5db" stroke-width="1"/><circle cx="228" cy="950" r="4" fill="#22c55e"/><text x="238" y="954" font-family="Segoe UI,Helvetica,Arial" font-size="11.5" font-weight="600" fill="#111827">centos9-2</text><circle cx="229" cy="969" r="3" fill="#2563eb"/><text x="236" y="972" font-family="Consolas,monospace" font-size="9.5" fill="#374151">.123</text><circle cx="266.4" cy="969" r="3" fill="#16a34a"/><text x="273.4" y="972" font-family="Consolas,monospace" font-size="9.5" fill="#374151">.89</text><circle cx="298.2" cy="969" r="3" fill="#0891b2"/><text x="305.2" y="972" font-family="Consolas,monospace" font-size="9.5" fill="#374151">.101</text><rect x="396" y="938" width="168" height="50" rx="6" fill="#ffffff" stroke="#d1d5db" stroke-width="1"/><circle cx="406" cy="950" r="4" fill="#22c55e"/><text x="416" y="954" font-family="Segoe UI,Helvetica,Arial" font-size="11.5" font-weight="600" fill="#111827">centos9-3</text><circle cx="407" cy="969" r="3" fill="#2563eb"/><text x="414" y="972" font-family="Consolas,monospace" font-size="9.5" fill="#374151">.110</text><circle cx="444.4" cy="969" r="3" fill="#16a34a"/><text x="451.4" y="972" font-family="Consolas,monospace" font-size="9.5" fill="#374151">.59</text><circle cx="476.2" cy="969" r="3" fill="#0891b2"/><text x="483.2" y="972" font-family="Consolas,monospace" font-size="9.5" fill="#374151">.11</text><rect x="574" y="938" width="168" height="50" rx="6" fill="#ffffff" stroke="#d1d5db" stroke-width="1"/><circle cx="584" cy="950" r="4" fill="#22c55e"/><text x="594" y="954" font-family="Segoe UI,Helvetica,Arial" font-size="11.5" font-weight="600" fill="#111827">centos9-4</text><circle cx="585" cy="969" r="3" fill="#2563eb"/><text x="592" y="972" font-family="Consolas,monospace" font-size="9.5" fill="#374151">.82</text><circle cx="616.8" cy="969" r="3" fill="#16a34a"/><text x="623.8" y="972" font-family="Consolas,monospace" font-size="9.5" fill="#374151">.9</text><circle cx="643.0" cy="969" r="3" fill="#0891b2"/><text x="650.0" y="972" font-family="Consolas,monospace" font-size="9.5" fill="#374151">.59</text><rect x="28" y="1018" width="1236" height="98" rx="10" fill="#f9fafb" stroke="#6b7280" stroke-width="1.5"/><rect x="28" y="1018" width="6" height="98" rx="3" fill="#6b7280"/><text x="44" y="1040" font-family="Segoe UI,Helvetica,Arial" font-size="14" font-weight="700" fill="#111827">Ubuntu 18.04 (레거시) <tspan fill="#6b7280">×1</tspan></text><rect x="40" y="1052" width="168" height="50" rx="6" fill="#ffffff" stroke="#d1d5db" stroke-width="1"/><circle cx="50" cy="1064" r="4" fill="#22c55e"/><text x="60" y="1068" font-family="Segoe UI,Helvetica,Arial" font-size="11.5" font-weight="600" fill="#111827">ubuntu18-1</text><circle cx="51" cy="1083" r="3" fill="#2563eb"/><text x="58" y="1086" font-family="Consolas,monospace" font-size="9.5" fill="#374151">.113</text><circle cx="88.4" cy="1083" r="3" fill="#9333ea"/><text x="95.4" y="1086" font-family="Consolas,monospace" font-size="9.5" fill="#374151">.57</text><rect x="28" y="1132" width="1236" height="98" rx="10" fill="#eff6ff" stroke="#2563eb" stroke-width="1.5"/><rect x="28" y="1132" width="6" height="98" rx="3" fill="#2563eb"/><text x="44" y="1154" font-family="Segoe UI,Helvetica,Arial" font-size="14" font-weight="700" fill="#111827">Windows Server 2022 <tspan fill="#2563eb">×7</tspan></text><rect x="40" y="1166" width="168" height="50" rx="6" fill="#ffffff" stroke="#d1d5db" stroke-width="1"/><circle cx="50" cy="1178" r="4" fill="#22c55e"/><text x="60" y="1182" font-family="Segoe UI,Helvetica,Arial" font-size="11.5" font-weight="600" fill="#111827">windows2022-1</text><circle cx="51" cy="1197" r="3" fill="#2563eb"/><text x="58" y="1200" font-family="Consolas,monospace" font-size="9.5" fill="#374151">.91</text><circle cx="82.8" cy="1197" r="3" fill="#16a34a"/><text x="89.8" y="1200" font-family="Consolas,monospace" font-size="9.5" fill="#374151">.67</text><circle cx="114.6" cy="1197" r="3" fill="#0891b2"/><text x="121.6" y="1200" font-family="Consolas,monospace" font-size="9.5" fill="#374151">.69</text><rect x="218" y="1166" width="168" height="50" rx="6" fill="#ffffff" stroke="#d1d5db" stroke-width="1"/><circle cx="228" cy="1178" r="4" fill="#22c55e"/><text x="238" y="1182" font-family="Segoe UI,Helvetica,Arial" font-size="11.5" font-weight="600" fill="#111827">windows2022-2</text><circle cx="229" cy="1197" r="3" fill="#2563eb"/><text x="236" y="1200" font-family="Consolas,monospace" font-size="9.5" fill="#374151">.87</text><circle cx="260.8" cy="1197" r="3" fill="#16a34a"/><text x="267.8" y="1200" font-family="Consolas,monospace" font-size="9.5" fill="#374151">.112</text><circle cx="298.2" cy="1197" r="3" fill="#0891b2"/><text x="305.2" y="1200" font-family="Consolas,monospace" font-size="9.5" fill="#374151">.77</text><rect x="396" y="1166" width="168" height="50" rx="6" fill="#ffffff" stroke="#d1d5db" stroke-width="1"/><circle cx="406" cy="1178" r="4" fill="#22c55e"/><text x="416" y="1182" font-family="Segoe UI,Helvetica,Arial" font-size="11.5" font-weight="600" fill="#111827">windows2022-3</text><circle cx="407" cy="1197" r="3" fill="#2563eb"/><text x="414" y="1200" font-family="Consolas,monospace" font-size="9.5" fill="#374151">.92</text><circle cx="438.8" cy="1197" r="3" fill="#16a34a"/><text x="445.8" y="1200" font-family="Consolas,monospace" font-size="9.5" fill="#374151">.121</text><circle cx="476.2" cy="1197" r="3" fill="#0891b2"/><text x="483.2" y="1200" font-family="Consolas,monospace" font-size="9.5" fill="#374151">.33</text><rect x="574" y="1166" width="168" height="50" rx="6" fill="#ffffff" stroke="#d1d5db" stroke-width="1"/><circle cx="584" cy="1178" r="4" fill="#22c55e"/><text x="594" y="1182" font-family="Segoe UI,Helvetica,Arial" font-size="11.5" font-weight="600" fill="#111827">windows2022-4</text><circle cx="585" cy="1197" r="3" fill="#2563eb"/><text x="592" y="1200" font-family="Consolas,monospace" font-size="9.5" fill="#374151">.114</text><circle cx="622.4" cy="1197" r="3" fill="#16a34a"/><text x="629.4" y="1200" font-family="Consolas,monospace" font-size="9.5" fill="#374151">.125</text><circle cx="659.8" cy="1197" r="3" fill="#0891b2"/><text x="666.8" y="1200" font-family="Consolas,monospace" font-size="9.5" fill="#374151">.7</text><rect x="752" y="1166" width="168" height="50" rx="6" fill="#ffffff" stroke="#d1d5db" stroke-width="1"/><circle cx="762" cy="1178" r="4" fill="#22c55e"/><text x="772" y="1182" font-family="Segoe UI,Helvetica,Arial" font-size="11.5" font-weight="600" fill="#111827">windows2022-5</text><circle cx="763" cy="1197" r="3" fill="#2563eb"/><text x="770" y="1200" font-family="Consolas,monospace" font-size="9.5" fill="#374151">.94</text><circle cx="794.8" cy="1197" r="3" fill="#16a34a"/><text x="801.8" y="1200" font-family="Consolas,monospace" font-size="9.5" fill="#374151">.52</text><circle cx="826.5999999999999" cy="1197" r="3" fill="#0891b2"/><text x="833.5999999999999" y="1200" font-family="Consolas,monospace" font-size="9.5" fill="#374151">.96</text><rect x="930" y="1166" width="168" height="50" rx="6" fill="#ffffff" stroke="#d1d5db" stroke-width="1"/><circle cx="940" cy="1178" r="4" fill="#22c55e"/><text x="950" y="1182" font-family="Segoe UI,Helvetica,Arial" font-size="11.5" font-weight="600" fill="#111827">windows2022-6</text><circle cx="941" cy="1197" r="3" fill="#2563eb"/><text x="948" y="1200" font-family="Consolas,monospace" font-size="9.5" fill="#374151">.90</text><circle cx="972.8" cy="1197" r="3" fill="#16a34a"/><text x="979.8" y="1200" font-family="Consolas,monospace" font-size="9.5" fill="#374151">.48</text><circle cx="1004.5999999999999" cy="1197" r="3" fill="#0891b2"/><text x="1011.5999999999999" y="1200" font-family="Consolas,monospace" font-size="9.5" fill="#374151">.100</text><rect x="1108" y="1166" width="168" height="50" rx="6" fill="#ffffff" stroke="#d1d5db" stroke-width="1"/><circle cx="1118" cy="1178" r="4" fill="#22c55e"/><text x="1128" y="1182" font-family="Segoe UI,Helvetica,Arial" font-size="11.5" font-weight="600" fill="#111827">windows2022-7</text><circle cx="1119" cy="1197" r="3" fill="#2563eb"/><text x="1126" y="1200" font-family="Consolas,monospace" font-size="9.5" fill="#374151">.81</text><circle cx="1150.8" cy="1197" r="3" fill="#16a34a"/><text x="1157.8" y="1200" font-family="Consolas,monospace" font-size="9.5" fill="#374151">.68</text><circle cx="1182.6" cy="1197" r="3" fill="#0891b2"/><text x="1189.6" y="1200" font-family="Consolas,monospace" font-size="9.5" fill="#374151">.95</text><rect x="28" y="1246" width="1236" height="98" rx="10" fill="#f9fafb" stroke="#6b7280" stroke-width="1.5"/><rect x="28" y="1246" width="6" height="98" rx="3" fill="#6b7280"/><text x="44" y="1268" font-family="Segoe UI,Helvetica,Arial" font-size="14" font-weight="700" fill="#111827">Windows Server 2008 (레거시) <tspan fill="#6b7280">×1</tspan></text><rect x="40" y="1280" width="168" height="50" rx="6" fill="#ffffff" stroke="#d1d5db" stroke-width="1"/><circle cx="50" cy="1292" r="4" fill="#22c55e"/><text x="60" y="1296" font-family="Segoe UI,Helvetica,Arial" font-size="11.5" font-weight="600" fill="#111827">windows2008-1</text><circle cx="51" cy="1311" r="3" fill="#2563eb"/><text x="58" y="1314" font-family="Consolas,monospace" font-size="9.5" fill="#374151">.99</text><circle cx="82.8" cy="1311" r="3" fill="#16a34a"/><text x="89.8" y="1314" font-family="Consolas,monospace" font-size="9.5" fill="#374151">.43</text><circle cx="114.6" cy="1311" r="3" fill="#0891b2"/><text x="121.6" y="1314" font-family="Consolas,monospace" font-size="9.5" fill="#374151">.46</text><circle cx="146.39999999999998" cy="1311" r="3" fill="#9333ea"/><text x="153.39999999999998" y="1314" font-family="Consolas,monospace" font-size="9.5" fill="#374151">.94</text><rect x="28" y="1360" width="1236" height="64" rx="10" fill="#f8fafc" stroke="#cbd5e1" stroke-width="1"/><text x="42" y="1382" font-family="Segoe UI,Helvetica,Arial" font-size="12" font-weight="700" fill="#334155">네트워크 범례</text><circle cx="47" cy="1397" r="5" fill="#2563eb"/><text x="58" y="1400" font-family="Consolas,monospace" font-size="10.5" fill="#475569">priv  zconverter-private-network 1.1.1.0/24</text><circle cx="347" cy="1397" r="5" fill="#16a34a"/><text x="358" y="1400" font-family="Consolas,monospace" font-size="10.5" fill="#475569">t1    subnet-test-net 2.2.2.0/25</text><circle cx="647" cy="1397" r="5" fill="#0891b2"/><text x="658" y="1400" font-family="Consolas,monospace" font-size="10.5" fill="#475569">t2    subnet-test-net-02 3.3.3.0/25</text><circle cx="47" cy="1413" r="5" fill="#9333ea"/><text x="58" y="1416" font-family="Consolas,monospace" font-size="10.5" fill="#475569">leg   agent-legacy 4.4.4.0/24</text><circle cx="347" cy="1413" r="5" fill="#dc2626"/><text x="358" y="1416" font-family="Consolas,monospace" font-size="10.5" fill="#475569">mgmt  192.168.3.0/24 (외부·ZDM)</text><circle cx="647" cy="1413" r="5" fill="#22c55e"/><text x="658" y="1416" font-family="Consolas,monospace" font-size="10.5" fill="#475569">● ACTIVE</text></svg>